<svg width="44" height="44" viewBox="0 0 44 44" fill="none" xmlns="http://www.w3.org/2000/svg">
<circle cx="22" cy="22" r="22" fill="#F94877"/>
<path d="M26.5753 19.9222L22.9088 11.7782L22.9071 11.7744L22.9072 11.7744C22.876 11.6966 22.8605 11.6135 22.8615 11.5298C22.8626 11.446 22.8801 11.3633 22.9131 11.2863C22.9462 11.2094 22.9941 11.1397 23.0541 11.0812C23.1141 11.0227 23.1851 10.9767 23.2629 10.9456C23.3408 10.9145 23.424 10.899 23.5078 10.9C23.5916 10.9011 23.6744 10.9186 23.7515 10.9515C23.8285 10.9845 23.8983 11.0323 23.9569 11.0922C24.0151 11.1517 24.061 11.2219 24.0922 11.299L27.8952 19.9222H36.5C36.6591 19.9222 36.8117 19.9852 36.9242 20.0976C37.0367 20.2099 37.1 20.3623 37.1 20.5213C37.1 20.6802 37.0367 20.8326 36.9242 20.9449C36.8117 21.0573 36.6591 21.1204 36.5 21.1204H35.8966L31.0525 32.7273C31.0525 32.7273 31.0525 32.7273 31.0525 32.7273C31.0074 32.8367 30.931 32.9303 30.8327 32.9964C30.7345 33.0625 30.6189 33.098 30.5005 33.0986L30.5 33.0986H13.5035C13.3784 33.1071 13.2537 33.0762 13.147 33.0101C13.0393 32.9435 12.9555 32.8445 12.9076 32.7274L12.9076 32.7274L13 32.6892L12.9074 32.727L26.5753 19.9222ZM26.5753 19.9222H17.4247L21.0912 11.7782L21.0913 11.7783L21.0928 11.7744C21.1558 11.6173 21.1536 11.4418 21.0869 11.2863C21.0201 11.1309 20.8943 11.0083 20.7371 10.9456C20.5799 10.8828 20.4042 10.8849 20.2485 10.9515C20.0935 11.0179 19.971 11.1428 19.9078 11.299L16.1048 19.9222H7.5C7.34093 19.9222 7.18834 19.9852 7.0758 20.0976C6.96326 20.2099 6.9 20.3623 6.9 20.5213C6.9 20.6802 6.96326 20.8326 7.0758 20.9449C7.18834 21.0573 7.34093 21.1204 7.5 21.1204H8.10316L26.5753 19.9222ZM34.5999 21.1204L30.1034 31.9004H13.8966L9.40006 21.1204H34.5999Z" fill="white" stroke="white" stroke-width="0.2"/>
</svg>
